<svg xmlns="http://www.w3.org/2000/svg" xmlns:xlink="http://www.w3.org/1999/xlink" viewBox="0 0 118.5 127.73"><defs><style>.cls-1{fill:url(#New_Gradient_Swatch_1);}.cls-2{fill:url(#New_Gradient_Swatch_1-2);}.cls-3{fill:url(#New_Gradient_Swatch_2);}</style><linearGradient id="New_Gradient_Swatch_1" x1="59.25" y1="105.41" x2="59.25" y2="16.76" gradientUnits="userSpaceOnUse"><stop offset="0.18" stop-color="#725aa6"/><stop offset="1" stop-color="#ee3085"/></linearGradient><linearGradient id="New_Gradient_Swatch_1-2" x1="59.25" y1="127.73" x2="59.25" y2="48.26" xlink:href="#New_Gradient_Swatch_1"/><linearGradient id="New_Gradient_Swatch_2" x1="59.25" y1="110.97" x2="59.25" gradientUnits="userSpaceOnUse"><stop offset="0.18" stop-color="#319690"/><stop offset="1" stop-color="#63c4af"/></linearGradient></defs><g id="Layer_2" data-name="Layer 2"><g id="Layer_1-2" data-name="Layer 1"><polygon class="cls-1" points="19.33 105.41 11.92 105.41 59.26 16.76 106.58 105.41 99.16 105.41 59.22 30.74 19.33 105.41"/><polygon class="cls-2" points="118.5 127.72 95.83 127.72 59.22 59.29 22.67 127.72 0 127.72 7.51 113.67 24.29 113.67 59.22 48.26 94.21 113.67 110.99 113.67 118.5 127.72"/><path class="cls-3" d="M59.26,0,0,111H22.67L59.22,42.54,95.83,111H118.5ZM97.54,108.11,59.22,36.46,21,108.11H4.77l54.49-102,54.47,102Z"/></g></g></svg>