<svg xmlns="http://www.w3.org/2000/svg" xmlns:xlink="http://www.w3.org/1999/xlink" viewBox="0 0 234.66 278.97"><defs><style>.cls-1,.cls-17,.cls-18,.cls-19,.cls-20,.cls-21,.cls-24,.cls-25,.cls-26,.cls-29{fill:none;}.cls-2{fill:#fde9e9;}.cls-3{fill:#3cbeb7;}.cls-4{fill:#efc279;}.cls-23,.cls-5{fill:#fff;}.cls-6{fill:#94a2bf;}.cls-7{clip-path:url(#clip-path);}.cls-8{fill:#2a3257;}.cls-9{fill:#505f84;}.cls-10{fill:#dc6457;}.cls-11{fill:#5d1313;}.cls-12{fill:#e95865;}.cls-13{fill:#f5887a;}.cls-14{fill:#f9fcfd;}.cls-15{fill:#f05977;}.cls-16{fill:#fcb817;}.cls-17,.cls-18,.cls-19,.cls-20,.cls-21,.cls-26{stroke:#2a3257;}.cls-17,.cls-18{stroke-miterlimit:10;}.cls-17,.cls-19,.cls-20,.cls-21{stroke-width:1.12px;}.cls-18{stroke-width:2.25px;}.cls-19,.cls-20,.cls-21,.cls-24,.cls-25,.cls-26,.cls-29{stroke-linecap:round;stroke-linejoin:round;}.cls-20{stroke-dasharray:0 5.47;}.cls-21{stroke-dasharray:0 6;}.cls-22{fill:#a7cfee;}.cls-23{opacity:0.53;}.cls-24,.cls-25{stroke:#4a63ae;stroke-width:0.85px;}.cls-25{stroke-dasharray:0 2.59;}.cls-26,.cls-29{stroke-width:0.84px;}.cls-27{fill:#232839;}.cls-28{fill:#c8d8ef;}.cls-29{stroke:#00b2ca;}</style><clipPath id="clip-path"><rect class="cls-1" x="49.66" y="63.92" width="92.22" height="96.72"/></clipPath></defs><g id="Layer_2" data-name="Layer 2"><g id="Layer_1-2" data-name="Layer 1"><circle class="cls-2" cx="110.58" cy="101.03" r="88.09" transform="translate(-39.05 107.78) rotate(-45)"/><path class="cls-3" d="M16.65,218.68l.19.08a1.42,1.42,0,0,0,1.55-.32L51.9,184.65a1.42,1.42,0,0,0,.31-1.56,1.54,1.54,0,0,0-.08-.19Z"/><path class="cls-3" d="M13.24,217h0a1.4,1.4,0,0,0,1.71-.22l35.23-35.52a1.41,1.41,0,0,0,.2-1.71h0Z"/><path class="cls-3" d="M10.21,214.86c.28.23.57.45.86.66l37.85-38.17c-.21-.29-.44-.57-.66-.85Z"/><path class="cls-3" d="M24.89,220.69l.79.05a1.45,1.45,0,0,0,1.08-.42L53.85,193a1.41,1.41,0,0,0,.41-1.08c0-.27,0-.53-.06-.8Z"/><path class="cls-3" d="M36.75,219q1.26-.48,2.46-1.08a1.39,1.39,0,0,0,.39-.28l11.72-11.82a1.36,1.36,0,0,0,.27-.39A24.47,24.47,0,0,0,52.65,203Z"/><path class="cls-3" d="M20.49,220l.45.11a1.45,1.45,0,0,0,1.34-.4l30.89-31.16a1.45,1.45,0,0,0,.39-1.34l-.12-.45Z"/><path class="cls-3" d="M30.05,220.63c.44,0,.87-.1,1.3-.17a1.51,1.51,0,0,0,.79-.41l21.49-21.67a1.49,1.49,0,0,0,.4-.79c.06-.43.12-.86.16-1.3Z"/><path class="cls-3" d="M5.19,209.62c.21.29.43.58.65.86l38-38.32c-.28-.22-.57-.43-.86-.64Z"/><path class="cls-3" d="M.74,188.32a1.51,1.51,0,0,0-.4.77c-.07.45-.13.89-.18,1.34l23.58-23.78c-.45,0-.89.12-1.34.2a1.41,1.41,0,0,0-.76.4Z"/><path class="cls-3" d="M3.41,180.47a1.72,1.72,0,0,0-.25.35,26.26,26.26,0,0,0-1.25,2.69l14.93-15a27.41,27.41,0,0,0-2.68,1.27,1.52,1.52,0,0,0-.35.26Z"/><path class="cls-3" d="M.42,193.81A1.4,1.4,0,0,0,0,194.87c0,.28,0,.55.05.82L29,166.5l-.82,0a1.4,1.4,0,0,0-1.06.42Z"/><path class="cls-3" d="M2.26,202.26a1.43,1.43,0,0,0-.32,1.53L2,204l35.3-35.6-.22-.09a1.43,1.43,0,0,0-1.53.33Z"/><path class="cls-3" d="M4,205.72a1.39,1.39,0,0,0-.22,1.69l0,0,37-37.33h0a1.41,1.41,0,0,0-1.73.23Z"/><path class="cls-3" d="M45.78,173.84,7.53,212.41l.75.76,38.27-38.59Z"/><path class="cls-3" d="M1,198.34a1.42,1.42,0,0,0-.39,1.32c0,.16.07.32.11.48l32.69-33-.48-.11a1.42,1.42,0,0,0-1.31.4Z"/><circle class="cls-2" cx="172.06" cy="188" r="7.87"/><rect class="cls-4" x="32.98" y="62.42" width="113.59" height="170.19"/><rect class="cls-5" x="38.98" y="55.68" width="113.59" height="170.19"/><rect class="cls-3" x="56.6" y="166.26" width="34.86" height="3"/><rect class="cls-6" x="56.6" y="182.85" width="83.97" height="3"/><rect class="cls-6" x="56.6" y="190.91" width="37.02" height="3"/><rect class="cls-3" x="56.6" y="172.26" width="12.75" height="3"/><rect class="cls-3" x="49.66" y="63.92" width="92.22" height="96.72" rx="4.59"/><g class="cls-7"><path class="cls-8" d="M138.47,169.74c-.67-6-2.93-25-5.16-29-2.64-4.7-27.48-15.13-27.48-15.13l-10.65,6.76-10.69-6.7S59.7,136.29,57.09,141c-2.2,4-4.36,23-5,29Z"/><polygon class="cls-9" points="89.61 128.93 84.49 125.72 74.47 146.75 82.82 155.77 77.77 163.39 85.01 169.89 92.22 169.87 89.61 128.93"/><polygon class="cls-9" points="101.53 128.9 106.63 125.66 116.77 146.63 108.47 155.7 113.56 163.29 106.36 169.83 99.15 169.85 101.53 128.9"/><path class="cls-10" d="M105.43,104.44s-2.49,14.66,0,24.79a90.82,90.82,0,0,1-9.35,7l-1.76.42a105.88,105.88,0,0,1-9.8-7.17c1.6-10.19.09-24.93.09-24.93"/><path class="cls-11" d="M86.32,78.52S107,65.88,115.13,72.76s-2.59,17.46-2.59,17.46,3.25.81,3.46,3.44-5,7.12-5,7.12l-32.68.09s-5.51-9.72-4.91-14.39,4.66.19,4.66.19,4.44-10.57,6.47-10.58S86.32,78.52,86.32,78.52Z"/><path class="cls-12" d="M109.75,101.63s1.68-2.15,3.83-.77-.44,10-3.81,8.74S109.75,101.63,109.75,101.63Z"/><path class="cls-12" d="M80,101.72s-1.69-2.14-3.84-.76.49,10,3.86,8.72S80,101.72,80,101.72Z"/><path class="cls-13" d="M95.11,77.85s10.91,1.09,14.11,8.87,2.34,23-.83,27.46-7.4,7.94-13.31,8.33h0c-5.9-.36-10.15-3.81-13.34-8.25s-4.15-19.66-1-27.46,14.06-9,14.06-9Z"/><path class="cls-12" d="M94.12,109a5,5,0,0,0,3.52-.09,2.73,2.73,0,0,1-1.22,1.38A1.72,1.72,0,0,1,94.12,109Z"/><path class="cls-11" d="M112.54,90.22S101.4,98,93.27,96.16s-2-9.53-2-9.53L81.5,94.17a7.9,7.9,0,0,1-2.82,8.94s-1.24-6.7-.44-11.57,3.63-9.35,5.65-11,9.53-5.71,14.4-5.12S113.12,78.45,112.54,90.22Z"/><path class="cls-14" d="M95.18,132.42l-10.69-6.7-1,.44,5.38,43.72,12.49,0L106.51,126l-.68-.29Z"/><polygon class="cls-15" points="94.17 136.91 91.65 142.53 95.64 144.51 98.89 141.79 96.34 136.73 94.17 136.91"/><polygon class="cls-15" points="91.37 169.87 100.62 169.84 97.17 141.07 94.19 142.71 91.37 169.87"/></g><path class="cls-16" d="M61.65,202.61l1.21,3.74a.46.46,0,0,0,.44.32h3.93a.46.46,0,0,1,.27.84l-3.18,2.3a.46.46,0,0,0-.16.52l1.21,3.74a.46.46,0,0,1-.71.51l-3.18-2.31a.48.48,0,0,0-.54,0l-3.18,2.31a.46.46,0,0,1-.71-.51l1.21-3.74a.48.48,0,0,0-.17-.52l-3.18-2.3a.47.47,0,0,1,.28-.84h3.92a.45.45,0,0,0,.44-.32l1.22-3.74A.46.46,0,0,1,61.65,202.61Z"/><path class="cls-16" d="M79.68,202.61l1.21,3.74a.46.46,0,0,0,.44.32h3.93a.46.46,0,0,1,.27.84l-3.18,2.3a.46.46,0,0,0-.16.52l1.21,3.74a.46.46,0,0,1-.71.51l-3.18-2.31a.48.48,0,0,0-.54,0l-3.18,2.31a.46.46,0,0,1-.71-.51l1.21-3.74a.46.46,0,0,0-.17-.52L73,207.51a.46.46,0,0,1,.27-.84h3.93a.47.47,0,0,0,.44-.32l1.21-3.74A.46.46,0,0,1,79.68,202.61Z"/><path class="cls-16" d="M97.71,202.61l1.21,3.74a.47.47,0,0,0,.44.32h3.93a.46.46,0,0,1,.27.84l-3.17,2.3a.46.46,0,0,0-.17.52l1.21,3.74a.46.46,0,0,1-.71.51l-3.18-2.31a.48.48,0,0,0-.54,0l-3.18,2.31a.46.46,0,0,1-.71-.51l1.21-3.74a.46.46,0,0,0-.16-.52L91,207.51a.46.46,0,0,1,.27-.84h3.93a.46.46,0,0,0,.44-.32l1.21-3.74A.46.46,0,0,1,97.71,202.61Z"/><path class="cls-16" d="M115.74,202.61l1.22,3.74a.45.45,0,0,0,.44.32h3.92a.47.47,0,0,1,.28.84l-3.18,2.3a.48.48,0,0,0-.17.52l1.21,3.74a.46.46,0,0,1-.71.51l-3.18-2.31a.48.48,0,0,0-.54,0l-3.18,2.31a.46.46,0,0,1-.71-.51l1.21-3.74a.46.46,0,0,0-.16-.52l-3.18-2.3a.46.46,0,0,1,.27-.84h3.93a.46.46,0,0,0,.44-.32l1.21-3.74A.46.46,0,0,1,115.74,202.61Z"/><path class="cls-16" d="M133.77,202.61l1.22,3.74a.46.46,0,0,0,.44.32h3.93a.47.47,0,0,1,.27.84l-3.18,2.3a.48.48,0,0,0-.17.52l1.21,3.74a.46.46,0,0,1-.71.51l-3.18-2.31a.48.48,0,0,0-.54,0l-3.18,2.31a.46.46,0,0,1-.71-.51l1.22-3.74a.48.48,0,0,0-.17-.52l-3.18-2.3a.46.46,0,0,1,.27-.84h3.93a.46.46,0,0,0,.44-.32l1.21-3.74A.46.46,0,0,1,133.77,202.61Z"/><rect class="cls-8" x="12.5" y="64.44" width="6" height="6"/><rect class="cls-8" x="24.64" y="77.42" width="3.09" height="3.09"/><rect class="cls-8" x="8.19" y="72.87" width="2.25" height="2.25"/><rect class="cls-5" x="150.13" y="100.28" width="75.91" height="47.23"/><polyline class="cls-17" points="178.15 105.91 219.85 105.91 219.85 125.03"/><polyline class="cls-18" points="143.94 118.65 143.94 105.91 156.22 105.91"/><polyline class="cls-17" points="160.72 153.14 143.94 153.14 143.94 125.78"/><polyline class="cls-18" points="219.85 139.37 219.85 153.14 180.12 153.14"/><line class="cls-19" x1="200.55" y1="100.28" x2="200.55" y2="100.28"/><line class="cls-20" x1="206.02" y1="100.28" x2="225.18" y2="100.28"/><line class="cls-19" x1="227.91" y1="100.28" x2="227.91" y2="100.28"/><line class="cls-21" x1="227.91" y1="106.28" x2="227.91" y2="121.28"/><line class="cls-19" x1="227.91" y1="124.28" x2="227.91" y2="124.28"/><circle class="cls-16" cx="181.24" cy="116.59" r="5.06"/><rect class="cls-3" x="157.06" y="125.4" width="52.48" height="1.87"/><rect class="cls-6" x="171.49" y="131.4" width="23.62" height="1.87"/><rect class="cls-6" x="167.63" y="137.4" width="31.35" height="1.87"/><rect class="cls-22" x="164.4" y="218.56" width="7.69" height="10.25" transform="translate(443.26 275.68) rotate(137.66)"/><circle class="cls-23" cx="145.74" cy="200.47" r="24.48" transform="matrix(0.05, -1, 1, 0.05, -61.34, 336.66)"/><line class="cls-24" x1="172.6" y1="176" x2="172.6" y2="176"/><path class="cls-25" d="M170.79,174.14a36.35,36.35,0,0,0-48.55-1.38"/><line class="cls-24" x1="121.27" y1="173.62" x2="121.27" y2="173.62"/><path class="cls-8" d="M123.44,220.8a30.17,30.17,0,1,0,2-42.63A30.18,30.18,0,0,0,123.44,220.8Zm4.21-3.84a24.48,24.48,0,1,1,34.58,1.61A24.48,24.48,0,0,1,127.65,217Z"/><rect class="cls-8" x="181.77" y="217.47" width="16.01" height="61.27" transform="translate(497.16 303.64) rotate(137.65)"/><rect class="cls-15" x="203.7" y="270.24" width="16.01" height="3.84" transform="translate(551.5 330.71) rotate(137.65)"/><path class="cls-15" d="M176.93,61.3a11.62,11.62,0,1,1,23.24,0c0,.13,0,.25,0,.37h18c0-.12,0-.25,0-.37a29.62,29.62,0,1,0-59.23,0c0,.12,0,.25,0,.37h18C177,61.55,176.93,61.43,176.93,61.3Z"/><path class="cls-16" d="M208,83.64,194.41,71.32a11.54,11.54,0,0,1-5.86,1.6,12.75,12.75,0,0,1-1.87-.16V90.85c.62,0,1.24.06,1.87.06A29.47,29.47,0,0,0,208,83.64Z"/><path class="cls-3" d="M177,61.67H159a29.6,29.6,0,0,0,27.73,29.18V72.76A11.62,11.62,0,0,1,177,61.67Z"/><path class="cls-26" d="M154.81,61.49a33.74,33.74,0,0,1,33.74-33.74"/><rect class="cls-27" x="189.68" y="167.2" width="44.98" height="3.37"/><rect class="cls-28" x="189.68" y="184.07" width="31.07" height="3.37"/><rect class="cls-28" x="189.68" y="175.63" width="16.03" height="3.37"/><rect class="cls-28" x="207.81" y="175.63" width="4.78" height="3.37"/><line class="cls-26" x1="188.18" y1="64.67" x2="215.92" y2="92.04"/><line class="cls-26" x1="4.49" y1="135.9" x2="10.49" y2="141.9"/><line class="cls-26" x1="10.11" y1="136.65" x2="16.11" y2="142.64"/><line class="cls-26" x1="15.36" y1="136.65" x2="21.36" y2="142.64"/><line class="cls-29" x1="198.67" y1="203.37" x2="204.67" y2="209.37"/><line class="cls-29" x1="204.3" y1="204.12" x2="210.29" y2="210.12"/><line class="cls-29" x1="209.54" y1="204.12" x2="215.54" y2="210.12"/><rect class="cls-17" x="37.48" y="30.93" width="62.98" height="7.5"/><rect class="cls-17" x="103.46" y="41.43" width="5.25" height="5.25"/><rect class="cls-8" x="211.42" y="227.37" width="6" height="6" transform="translate(428.83 460.73) rotate(180)"/><rect class="cls-8" x="202.19" y="217.29" width="3.09" height="3.09" transform="translate(407.47 437.67) rotate(180)"/><rect class="cls-8" x="219.48" y="222.68" width="2.25" height="2.25" transform="translate(441.2 447.61) rotate(180)"/><polyline class="cls-17" points="33.16 201.34 33.16 232.61 56.66 232.61"/><line class="cls-17" x1="64.66" y1="232.85" x2="75.66" y2="232.85"/><circle class="cls-8" cx="132.66" cy="240.85" r="1"/><circle class="cls-8" cx="140.99" cy="240.85" r="1"/><circle class="cls-8" cx="149.33" cy="240.85" r="1"/><circle class="cls-8" cx="157.66" cy="240.85" r="1"/><circle class="cls-8" cx="132.66" cy="248.01" r="1"/><circle class="cls-8" cx="140.99" cy="248.01" r="1"/><circle class="cls-8" cx="149.33" cy="248.01" r="1"/><circle class="cls-8" cx="157.66" cy="248.01" r="1"/><circle class="cls-8" cx="132.66" cy="255.18" r="1"/><circle class="cls-8" cx="140.99" cy="255.18" r="1"/><circle class="cls-8" cx="149.33" cy="255.18" r="1"/><circle class="cls-8" cx="157.66" cy="255.18" r="1"/><circle class="cls-8" cx="132.66" cy="262.35" r="1"/><circle class="cls-8" cx="140.99" cy="262.35" r="1"/><circle class="cls-8" cx="149.33" cy="262.35" r="1"/><circle class="cls-8" cx="157.66" cy="262.35" r="1"/><rect class="cls-8" x="9.12" y="64.47" width="5.33" height="5.33"/><rect class="cls-8" x="19.91" y="76.01" width="2.75" height="2.75"/><rect class="cls-8" x="5.28" y="71.97" width="2" height="2"/><rect class="cls-8" x="9.12" y="64.47" width="5.33" height="5.33"/><rect class="cls-8" x="19.91" y="76.01" width="2.75" height="2.75"/><rect class="cls-8" x="5.28" y="71.97" width="2" height="2"/><path class="cls-3" d="M153.16,38.72a9.66,9.66,0,0,1-6.5-2.94,20.92,20.92,0,1,0-4.94,3.71A16.34,16.34,0,0,0,153.16,38.72Z"/><path class="cls-17" d="M149.66,40.72a9.66,9.66,0,0,1-6.5-2.94,20.92,20.92,0,1,0-4.94,3.71A16.34,16.34,0,0,0,149.66,40.72Z"/><polygon class="cls-5" points="128.86 30.68 120.11 21.93 123.6 18.43 128.86 23.69 140.7 11.85 144.19 15.34 128.86 30.68"/></g></g></svg>