<?xml version="1.0" standalone="no"?>
<!DOCTYPE svg PUBLIC "-//W3C//DTD SVG 20010904//EN"
 "http://www.w3.org/TR/2001/REC-SVG-20010904/DTD/svg10.dtd">
<svg version="1.0" xmlns="http://www.w3.org/2000/svg"
 width="1024.000000pt" height="1024.000000pt" viewBox="0 0 1024.000000 1024.000000"
 preserveAspectRatio="xMidYMid meet">
<metadata>
Created by potrace 1.14, written by Peter Selinger 2001-2017
</metadata>
<g transform="translate(0.000000,1024.000000) scale(0.100000,-0.100000)"
fill="#000000" stroke="none">
<path d="M5081 10168 c-99 -188 -147 -279 -174 -328 -16 -30 -59 -111 -95
-180 -36 -69 -68 -127 -71 -130 -3 -3 -22 -36 -41 -75 -19 -38 -53 -104 -76
-145 -48 -88 -146 -273 -183 -345 -14 -27 -28 -52 -31 -55 -3 -3 -16 -27 -30
-55 -13 -27 -37 -72 -52 -98 -16 -26 -28 -54 -28 -62 0 -7 -4 -15 -8 -17 -8
-3 -123 -213 -171 -313 -14 -27 -28 -51 -33 -53 -4 -2 -8 -9 -8 -16 0 -6 -8
-23 -17 -36 -10 -14 -18 -29 -19 -35 -1 -5 -17 -37 -35 -70 -19 -33 -43 -78
-54 -100 -11 -22 -22 -42 -25 -45 -3 -3 -14 -23 -25 -45 -10 -22 -26 -48 -34
-57 -8 -10 -11 -18 -8 -18 4 0 -6 -22 -22 -48 -16 -27 -32 -59 -36 -70 -3 -12
-11 -22 -17 -22 -6 0 -8 -3 -5 -7 4 -3 3 -11 -2 -17 -5 -6 -30 -51 -56 -101
-26 -49 -60 -112 -75 -140 -24 -44 -53 -98 -157 -295 -13 -25 -51 -94 -83
-155 -33 -60 -77 -144 -97 -185 -21 -41 -41 -77 -44 -80 -3 -3 -22 -36 -41
-75 -20 -38 -48 -90 -61 -115 -14 -25 -42 -76 -61 -115 -20 -38 -61 -115 -91
-170 -30 -55 -67 -125 -82 -155 -16 -30 -30 -57 -33 -60 -3 -3 -21 -36 -41
-75 -89 -172 -104 -200 -109 -205 -3 -3 -16 -27 -31 -55 -14 -27 -53 -102 -86
-165 -34 -63 -74 -140 -90 -170 -15 -30 -31 -57 -34 -60 -3 -3 -15 -25 -27
-50 -12 -25 -41 -81 -65 -125 -24 -44 -65 -123 -93 -175 -27 -52 -52 -97 -55
-100 -3 -3 -22 -39 -43 -80 -21 -41 -57 -111 -81 -155 -25 -44 -61 -114 -82
-155 -21 -41 -41 -77 -44 -80 -3 -3 -22 -39 -43 -80 -38 -74 -76 -145 -144
-270 -20 -36 -49 -91 -65 -122 -15 -32 -33 -60 -38 -63 -5 -4 -9 -15 -9 -25 0
-10 -4 -20 -8 -22 -4 -1 -17 -21 -28 -43 -20 -40 -92 -176 -165 -310 -21 -38
-49 -92 -63 -120 -14 -27 -46 -88 -72 -135 -25 -47 -64 -121 -87 -165 -23 -44
-44 -82 -47 -85 -3 -3 -25 -43 -49 -90 -24 -47 -60 -114 -79 -150 -19 -36 -53
-99 -75 -140 -21 -41 -43 -80 -48 -86 -5 -6 -6 -14 -2 -17 3 -4 1 -7 -5 -7 -7
0 -12 -4 -12 -8 0 -4 -28 -60 -61 -123 -34 -62 -80 -150 -104 -194 -23 -44
-65 -122 -93 -172 -28 -51 -47 -93 -44 -93 4 0 2 -4 -3 -8 -6 -4 -22 -29 -36
-57 -49 -92 -111 -210 -139 -260 -15 -27 -50 -94 -79 -147 l-51 -97 75 2 c41
1 75 -2 75 -6 0 -5 5 -5 12 -1 16 10 68 11 68 1 0 -5 5 -5 12 -1 16 10 68 11
68 1 0 -5 5 -5 12 -1 16 10 68 11 68 1 0 -5 5 -5 12 -1 16 10 68 11 68 1 0 -5
5 -5 12 -1 16 10 68 11 68 1 0 -5 5 -5 12 -1 16 10 68 11 68 1 0 -5 5 -5 12
-1 16 10 68 11 68 1 0 -5 5 -5 12 -1 16 10 68 11 68 1 0 -5 5 -5 12 -1 16 10
68 11 68 1 0 -5 5 -5 11 -2 15 10 203 10 217 1 7 -4 12 -4 12 1 0 10 212 9
228 -1 7 -4 12 -4 12 1 0 10 212 9 228 -1 7 -4 12 -4 12 1 0 4 49 7 108 6 60
-1 113 2 118 5 5 4 27 41 49 82 21 41 47 91 58 110 11 19 32 58 46 85 14 28
30 53 36 57 5 4 6 8 1 8 -5 0 -4 6 2 12 5 7 25 42 44 78 92 170 134 251 168
315 20 39 57 108 82 155 25 47 58 107 72 134 14 27 31 55 37 62 6 8 8 14 4 14
-4 0 -2 7 5 15 7 8 26 41 42 72 17 32 46 87 65 123 19 36 51 97 72 135 20 39
59 111 85 160 27 50 65 122 86 160 20 39 55 104 77 145 82 153 134 250 237
445 58 110 110 207 116 215 5 8 19 35 31 59 12 24 43 82 69 130 25 47 67 124
92 171 25 47 62 117 83 155 20 39 58 108 82 155 25 47 54 100 65 118 11 17 16
32 11 32 -4 0 -3 4 3 8 6 4 35 54 65 112 30 58 56 107 59 110 3 3 24 41 47 85
82 159 88 170 96 173 4 2 7 12 7 22 0 10 3 20 8 22 4 2 22 32 41 68 42 82 96
182 151 285 24 44 58 107 75 140 50 95 125 235 155 290 33 60 90 167 158 295
27 52 67 127 87 165 21 39 64 119 96 180 31 60 61 111 66 112 5 2 20 -20 34
-49 13 -29 26 -55 29 -58 3 -3 23 -39 45 -80 22 -41 52 -100 68 -130 16 -30
51 -95 78 -145 27 -49 62 -115 77 -145 15 -30 29 -57 32 -60 6 -6 19 -30 105
-195 37 -71 71 -134 75 -140 4 -5 32 -57 63 -115 30 -58 72 -136 92 -175 21
-38 53 -99 72 -134 18 -35 38 -70 44 -78 6 -7 8 -13 5 -13 -4 0 1 -12 12 -27
10 -16 26 -41 34 -58 36 -72 101 -191 110 -202 6 -7 7 -13 2 -13 -5 0 -4 -4 1
-8 6 -4 25 -36 44 -72 18 -36 46 -87 61 -115 15 -27 46 -85 69 -127 85 -161
125 -235 169 -318 24 -47 57 -107 72 -135 15 -27 49 -90 75 -140 26 -49 75
-142 110 -205 34 -63 82 -153 107 -200 105 -196 153 -287 174 -325 12 -22 35
-65 51 -95 16 -30 46 -89 68 -130 22 -41 42 -77 45 -80 3 -3 21 -36 40 -75 18
-38 36 -72 40 -75 3 -3 17 -30 33 -60 15 -30 48 -93 73 -140 25 -47 72 -134
104 -195 32 -60 79 -148 105 -195 25 -47 53 -101 63 -120 9 -19 22 -38 27 -42
7 -5 7 -8 0 -8 -7 0 -7 -3 0 -8 10 -7 19 -24 107 -192 22 -41 52 -97 66 -125
15 -27 54 -99 86 -160 32 -60 72 -135 89 -165 16 -30 41 -76 54 -102 22 -44
26 -47 58 -44 19 1 35 -2 35 -6 0 -5 5 -6 12 -2 16 10 68 11 68 1 0 -5 5 -5
12 -1 16 10 68 11 68 1 0 -5 5 -5 12 -1 16 10 68 11 68 1 0 -5 5 -5 12 -1 16
10 68 11 68 1 0 -5 5 -5 12 -1 16 10 68 11 68 1 0 -5 5 -5 12 -1 16 10 68 11
68 1 0 -5 5 -5 12 -1 16 10 68 11 68 1 0 -5 5 -5 12 -1 16 10 68 11 68 1 0 -5
5 -5 12 -1 16 10 68 11 68 1 0 -5 5 -5 12 -1 16 10 68 11 68 1 0 -5 5 -5 11
-2 15 10 203 10 217 1 7 -4 12 -4 12 1 0 10 212 9 228 -1 7 -4 12 -4 12 1 0
10 212 9 228 -1 7 -4 12 -4 12 1 0 4 52 7 115 6 l115 -2 -54 102 c-30 56 -73
136 -95 177 -23 41 -51 95 -63 120 -13 25 -27 48 -33 52 -5 4 -7 8 -2 8 4 0
-4 17 -17 38 -14 20 -26 44 -28 52 -2 8 -6 17 -9 20 -3 3 -37 64 -74 135 -38
72 -73 133 -79 137 -6 4 -7 8 -3 8 5 0 0 15 -11 33 -11 17 -34 59 -52 92 -44
85 -97 184 -159 300 -30 55 -72 134 -94 175 -22 41 -55 104 -75 140 -19 36
-55 103 -80 150 -24 47 -61 117 -82 155 -21 39 -57 106 -80 150 -23 44 -55
103 -70 130 -15 28 -52 97 -83 155 -30 58 -76 143 -102 190 -25 47 -55 103
-66 125 -11 22 -47 90 -80 150 -33 61 -67 126 -77 145 -9 19 -19 37 -22 40 -3
3 -15 25 -27 50 -21 44 -97 186 -170 320 -20 36 -57 106 -83 155 -26 50 -66
126 -90 170 -24 44 -57 107 -74 140 -17 33 -34 62 -38 65 -3 3 -14 24 -23 48
-10 23 -22 42 -28 42 -6 0 -8 3 -4 6 3 3 -4 23 -16 43 -12 20 -35 63 -52 96
-16 33 -32 62 -35 65 -3 3 -18 30 -33 60 -87 169 -143 276 -147 280 -3 3 -14
23 -26 45 -11 22 -39 74 -61 115 -95 177 -159 297 -250 470 -25 47 -58 108
-73 135 -15 28 -52 97 -83 155 -30 58 -63 121 -74 140 -11 19 -35 64 -53 100
-19 36 -42 77 -53 93 -10 15 -15 27 -11 27 3 0 2 6 -4 13 -6 7 -34 58 -63 112
-28 55 -59 111 -67 125 -9 14 -17 27 -17 30 -2 13 -39 76 -49 82 -6 4 -7 8 -3
8 5 0 0 15 -11 33 -11 17 -43 77 -72 132 -29 55 -65 123 -80 150 -29 53 -123
230 -162 305 -13 25 -25 47 -28 50 -3 3 -17 30 -33 60 -15 30 -54 105 -87 165
-33 61 -76 144 -97 185 -21 41 -41 77 -44 80 -3 3 -23 39 -44 80 -20 41 -53
103 -71 138 -67 122 -102 188 -149 277 -27 50 -94 176 -150 280 -56 105 -117
219 -135 255 -19 36 -42 77 -53 93 -10 15 -15 27 -12 27 3 0 -2 12 -12 28 -10
15 -25 41 -33 57 -8 17 -17 32 -20 35 -3 3 -19 32 -35 65 -62 122 -119 225
-125 225 -3 0 -21 -28 -39 -62z m95 -522 c10 -22 21 -43 24 -46 3 -3 14 -23
26 -45 44 -84 150 -282 176 -330 15 -27 40 -75 55 -105 16 -30 51 -95 77 -145
27 -49 67 -124 89 -165 22 -41 44 -81 49 -87 6 -7 7 -13 2 -13 -5 0 -4 -4 2
-8 6 -4 42 -68 81 -142 39 -74 92 -173 117 -220 26 -47 59 -110 73 -140 15
-30 29 -57 33 -60 3 -3 25 -43 50 -90 24 -47 66 -125 92 -175 27 -49 56 -106
66 -125 9 -19 22 -38 27 -42 7 -5 7 -8 0 -8 -7 0 -7 -3 0 -8 6 -4 25 -36 44
-72 91 -172 110 -208 165 -312 32 -62 63 -114 67 -116 5 -2 9 -10 9 -17 0 -7
16 -41 35 -75 19 -34 35 -66 35 -71 0 -5 5 -9 10 -9 6 0 10 -9 10 -19 0 -11 3
-21 8 -23 4 -1 22 -32 41 -68 53 -103 140 -268 185 -350 23 -41 48 -89 56
-105 8 -17 17 -32 20 -35 3 -3 25 -45 50 -95 25 -49 47 -92 50 -95 3 -3 19
-32 36 -65 17 -33 48 -91 68 -130 21 -38 54 -101 74 -140 21 -38 39 -72 42
-75 3 -3 22 -39 43 -80 21 -41 53 -102 71 -135 18 -33 54 -100 81 -150 26 -49
52 -96 57 -102 6 -7 7 -13 2 -13 -5 0 -4 -4 1 -8 6 -4 19 -25 31 -47 11 -22
39 -74 61 -115 67 -124 124 -232 158 -297 18 -34 37 -68 43 -75 6 -7 10 -17
10 -21 1 -4 17 -36 36 -71 20 -36 36 -69 36 -74 0 -6 3 -12 8 -14 4 -1 19 -25
33 -53 23 -46 64 -123 164 -310 21 -38 56 -104 78 -145 21 -41 56 -106 77
-145 21 -38 54 -101 75 -140 21 -38 60 -113 87 -165 28 -52 60 -113 73 -135
12 -22 46 -84 74 -137 28 -54 62 -117 75 -140 13 -24 47 -88 76 -143 29 -55
68 -128 86 -162 65 -121 102 -189 159 -298 32 -60 69 -130 83 -155 14 -25 45
-83 70 -130 100 -190 146 -276 348 -654 30 -54 56 -106 59 -115 5 -16 -39 -17
-641 -17 l-646 1 -37 70 c-20 39 -52 99 -71 135 -19 36 -40 73 -48 83 -9 9
-12 17 -7 17 4 0 3 6 -3 13 -5 6 -31 53 -58 102 -26 50 -70 131 -96 180 -27
50 -56 106 -66 125 -9 19 -19 37 -22 40 -3 3 -15 25 -28 50 -35 68 -142 269
-170 320 -13 25 -45 83 -69 130 -25 47 -58 108 -73 135 -35 65 -110 205 -146
275 -15 30 -30 57 -33 60 -4 3 -18 30 -34 60 -46 92 -117 222 -128 237 -6 7
-8 13 -4 13 4 0 3 6 -3 12 -11 15 -39 64 -107 193 -26 50 -64 122 -85 160 -21
39 -56 104 -78 145 -22 41 -53 100 -69 130 -17 30 -52 96 -78 145 -26 50 -66
124 -88 165 -101 185 -117 216 -124 230 -5 12 -172 325 -202 380 -32 59 -92
171 -139 260 -30 58 -76 143 -101 190 -26 47 -53 99 -61 115 -8 17 -17 32 -20
35 -3 3 -15 25 -27 50 -13 25 -47 90 -77 145 -30 55 -70 129 -88 165 -18 36
-37 68 -43 72 -7 5 -7 8 0 8 7 0 7 3 0 8 -6 4 -30 45 -55 92 -24 47 -56 108
-71 135 -15 28 -40 75 -56 105 -53 100 -130 245 -150 280 -11 19 -35 64 -53
100 -19 36 -42 77 -53 93 -10 15 -15 27 -11 27 3 0 2 6 -4 13 -11 13 -59 101
-99 180 -13 26 -29 47 -36 47 -7 0 -32 -41 -57 -91 -25 -51 -49 -97 -55 -103
-5 -6 -28 -47 -50 -91 -22 -44 -42 -82 -45 -85 -8 -7 -32 -65 -28 -66 1 -1 -5
-10 -14 -20 -9 -11 -22 -30 -28 -44 -6 -14 -25 -52 -43 -85 -33 -60 -101 -188
-185 -345 -24 -47 -49 -89 -53 -95 -5 -5 -9 -17 -9 -26 0 -10 -4 -19 -9 -21
-5 -1 -33 -49 -62 -106 -30 -57 -70 -134 -90 -170 -19 -37 -57 -107 -83 -157
-26 -49 -61 -115 -78 -145 -57 -106 -131 -246 -176 -330 -24 -47 -57 -107 -72
-135 -15 -27 -52 -97 -82 -155 -31 -58 -67 -125 -80 -150 -14 -25 -51 -94 -83
-155 -97 -184 -105 -198 -114 -209 -5 -6 -12 -22 -16 -36 -4 -14 -11 -27 -15
-30 -4 -3 -29 -48 -55 -100 -27 -52 -51 -97 -54 -100 -4 -3 -24 -41 -46 -85
-22 -44 -44 -83 -50 -87 -5 -4 -6 -8 -1 -8 5 0 4 -6 -1 -12 -11 -14 -42 -69
-115 -208 -50 -95 -130 -244 -195 -365 -24 -44 -60 -114 -80 -155 -21 -41 -41
-77 -44 -80 -3 -3 -34 -59 -69 -125 -129 -245 -153 -291 -180 -340 -15 -27
-49 -90 -75 -140 -26 -49 -67 -126 -90 -170 -24 -44 -56 -105 -71 -135 -16
-30 -32 -56 -36 -58 -5 -2 -8 -12 -8 -22 0 -10 -4 -20 -8 -22 -5 -1 -23 -32
-41 -68 -18 -36 -45 -87 -60 -115 -15 -27 -50 -92 -77 -143 -78 -148 -98 -186
-109 -202 -5 -8 -10 -17 -10 -20 -2 -13 -56 -110 -63 -111 -4 -1 -296 -3 -649
-4 -457 -1 -643 2 -643 10 0 6 6 19 13 30 8 11 37 63 64 115 113 212 137 258
173 325 21 39 57 106 80 150 77 144 103 190 113 203 5 6 6 12 3 12 -4 0 5 17
19 37 14 21 25 41 25 44 0 4 20 43 45 87 24 44 74 138 111 209 37 70 72 131
77 134 5 3 9 10 9 15 -1 9 78 161 180 346 32 59 58 109 58 112 0 3 15 31 34
63 18 32 59 108 91 168 32 61 62 116 68 123 5 6 6 12 1 12 -5 0 -4 4 1 8 12 9
15 13 106 188 40 77 76 141 81 142 4 2 8 11 8 21 0 9 4 21 9 26 5 6 30 51 56
100 27 50 52 96 58 103 5 6 6 12 1 12 -5 0 -4 4 1 8 6 4 28 40 49 81 21 41 46
88 55 105 9 17 19 33 24 34 4 2 7 12 7 23 0 10 3 19 8 19 4 0 13 15 21 32 8
18 21 41 29 51 8 9 11 17 7 17 -4 0 -1 8 7 18 9 9 19 28 23 42 4 14 11 27 15
30 3 3 54 95 112 205 59 110 117 220 131 245 13 25 42 79 64 120 22 41 62 116
88 165 26 50 57 108 69 130 34 62 115 213 156 290 48 92 124 235 165 310 18
33 52 96 75 140 95 179 123 231 133 243 5 6 6 12 1 12 -5 0 -4 4 1 8 6 4 19
25 30 47 11 21 41 76 67 122 26 46 44 83 40 83 -4 0 -2 4 3 8 6 4 26 37 45 74
63 121 263 497 300 563 9 16 50 93 90 170 41 77 77 142 82 143 4 2 8 11 8 21
0 9 7 27 17 40 9 13 26 42 38 65 83 157 143 270 186 348 27 50 49 95 49 99 0
4 6 14 13 21 6 8 30 50 52 93 22 44 44 83 48 86 5 3 8 10 8 15 -1 5 6 17 14
27 8 9 12 17 9 17 -5 0 36 80 46 90 3 3 18 30 33 60 45 91 115 221 128 236 6
8 8 14 4 14 -4 0 -3 6 3 13 8 11 28 46 108 196 13 24 29 50 35 57 6 8 8 14 4
14 -4 0 -3 6 2 13 13 15 67 114 107 192 16 33 38 73 49 88 l20 29 17 -28 c10
-15 26 -45 36 -68z"/>
<path d="M5113 8878 c-6 -7 -30 -50 -54 -96 -24 -45 -60 -113 -80 -150 -19
-37 -58 -110 -86 -162 -28 -52 -62 -115 -75 -140 -14 -25 -69 -128 -123 -230
-54 -102 -110 -207 -125 -235 -15 -27 -47 -88 -71 -135 -24 -47 -46 -87 -49
-90 -3 -3 -18 -30 -33 -60 -43 -81 -175 -330 -246 -460 -46 -86 -88 -165 -159
-300 -21 -41 -54 -102 -72 -135 -18 -33 -58 -107 -88 -165 -31 -58 -70 -132
-88 -165 -18 -33 -53 -98 -77 -145 -25 -47 -64 -119 -86 -160 -23 -41 -51 -95
-63 -120 -13 -25 -26 -46 -30 -48 -5 -2 -8 -9 -8 -15 0 -7 -16 -38 -35 -69
-19 -32 -32 -58 -29 -58 3 0 -3 -12 -14 -27 -10 -16 -35 -59 -54 -98 -73 -142
-93 -180 -98 -185 -3 -3 -25 -43 -49 -90 -24 -47 -47 -87 -50 -90 -3 -3 -7 -9
-8 -15 -1 -5 -24 -50 -51 -100 -27 -49 -71 -133 -99 -185 -92 -173 -125 -235
-145 -267 -11 -18 -16 -33 -12 -33 4 0 0 -8 -8 -17 -8 -10 -46 -76 -83 -148
-38 -71 -79 -150 -93 -175 -34 -63 -94 -174 -131 -244 -17 -33 -36 -65 -42
-73 -6 -7 -9 -13 -5 -13 3 0 -5 -18 -19 -40 -14 -22 -25 -42 -25 -44 0 -3 -13
-27 -29 -55 -16 -27 -27 -52 -24 -55 4 -3 1 -6 -5 -6 -7 0 -12 -4 -12 -10 0
-5 -13 -31 -28 -57 -16 -26 -29 -52 -29 -57 0 -4 -6 -17 -14 -27 -14 -20 -78
-139 -189 -354 -34 -66 -66 -125 -71 -130 -4 -6 -29 -51 -54 -100 -26 -50 -90
-171 -143 -270 -127 -236 -120 -224 -172 -323 -24 -48 -47 -89 -50 -92 -3 -3
-20 -34 -38 -70 -18 -36 -46 -90 -63 -120 -35 -63 -127 -237 -170 -319 l-29
-56 292 -3 c160 -1 295 1 299 5 6 8 34 58 122 223 22 41 52 98 67 125 15 28
51 95 80 150 29 55 65 123 80 150 15 28 51 95 80 150 29 55 63 118 75 140 12
22 46 85 75 140 29 55 65 123 80 150 28 51 92 171 139 260 14 28 30 53 34 56
5 3 8 9 8 13 -1 3 15 36 34 74 77 146 143 269 169 317 16 28 60 111 99 185 39
74 73 137 76 140 3 3 35 62 71 132 36 71 69 128 74 128 5 0 6 3 3 7 -4 3 2 20
12 37 10 17 39 69 63 116 25 47 62 117 83 155 21 39 47 86 57 105 10 19 22 42
27 50 4 8 12 24 18 35 5 11 26 49 45 85 20 36 55 101 78 145 24 44 63 118 88
165 25 47 66 123 91 170 25 47 57 108 71 135 14 28 28 52 33 53 4 2 7 8 7 13
0 5 20 45 44 89 25 44 42 80 38 80 -4 0 -2 4 3 8 6 4 21 27 34 52 54 102 115
218 141 265 15 28 40 75 56 105 16 30 33 58 39 62 5 4 7 8 3 8 -4 0 10 30 31
68 21 37 60 110 87 162 27 52 52 97 57 98 4 2 7 12 7 22 0 10 4 20 9 22 5 2
11 10 13 18 2 8 6 17 9 20 3 3 36 63 73 133 37 70 75 142 85 160 9 18 40 75
67 127 27 52 51 97 54 100 5 5 16 26 93 175 23 44 44 82 47 85 3 3 31 55 62
115 80 156 105 198 111 188 3 -4 20 -35 37 -68 18 -33 47 -87 65 -120 47 -87
130 -242 223 -420 15 -27 29 -52 32 -55 3 -3 16 -27 30 -55 13 -27 35 -67 47
-87 13 -21 21 -38 17 -38 -3 0 3 -12 14 -27 10 -16 35 -59 55 -98 19 -38 49
-95 66 -125 16 -30 42 -80 58 -110 15 -30 30 -57 33 -60 3 -3 20 -34 38 -70
18 -36 37 -72 42 -80 43 -73 79 -140 75 -140 -2 0 11 -26 29 -57 18 -32 55
-98 81 -148 26 -49 62 -117 80 -150 51 -95 114 -212 168 -315 27 -52 57 -108
67 -125 10 -16 40 -73 68 -125 27 -52 66 -126 87 -165 21 -38 55 -103 77 -144
21 -41 43 -80 49 -88 7 -7 8 -13 3 -13 -5 0 -4 -4 2 -8 6 -4 40 -63 76 -132
36 -69 95 -179 130 -245 80 -148 155 -289 200 -375 19 -36 44 -82 56 -102 33
-58 60 -112 60 -122 0 -5 4 -12 9 -15 5 -3 26 -37 45 -76 64 -126 93 -180 98
-185 3 -3 12 -18 20 -35 8 -16 68 -129 133 -249 64 -121 117 -223 117 -228 0
-4 5 -8 10 -8 6 0 10 -9 10 -19 0 -11 4 -22 8 -25 5 -3 29 -45 53 -93 24 -48
46 -90 49 -93 3 -3 23 -39 45 -80 22 -41 52 -100 68 -130 16 -30 39 -73 51
-95 12 -22 46 -85 75 -140 30 -55 66 -122 81 -150 37 -68 138 -259 170 -320
14 -27 27 -52 30 -55 3 -3 16 -27 30 -55 l25 -50 298 -3 c260 -2 297 0 297 13
0 8 -3 15 -7 15 -5 0 -13 10 -19 23 -5 12 -34 67 -63 122 -94 175 -149 279
-173 325 -13 25 -25 47 -28 50 -3 3 -22 39 -43 80 -21 41 -60 116 -87 165 -28
50 -66 122 -86 160 -19 39 -43 84 -53 100 -10 17 -37 68 -61 115 -24 47 -50
93 -58 103 -8 9 -12 17 -7 17 4 0 3 6 -3 13 -9 11 -22 34 -122 222 -23 44 -47
86 -52 93 -6 6 -7 12 -2 12 5 0 5 4 -1 8 -5 4 -20 27 -33 52 -24 46 -79 149
-171 320 -29 52 -62 115 -74 140 -12 25 -24 47 -27 50 -3 3 -15 25 -28 50 -64
124 -155 296 -162 305 -4 6 -27 48 -51 95 -23 47 -53 102 -66 123 -13 20 -20
37 -17 37 4 0 0 8 -8 18 -8 9 -34 55 -58 102 -23 47 -46 90 -50 95 -4 6 -36
64 -70 130 -34 66 -66 125 -70 130 -4 6 -36 66 -72 135 -83 159 -138 263 -170
320 -14 25 -53 99 -88 165 -34 66 -66 125 -70 130 -4 6 -35 64 -70 130 -34 66
-83 158 -108 205 -70 129 -107 198 -144 270 -44 83 -120 225 -168 315 -112
207 -170 315 -230 430 -29 55 -60 110 -68 123 -8 12 -11 22 -7 22 5 0 1 8 -7
18 -8 9 -39 62 -68 117 -29 55 -65 123 -80 150 -15 28 -53 100 -85 160 -32 61
-66 124 -75 140 -10 17 -46 84 -80 150 -34 66 -75 143 -90 170 -31 57 -86 159
-155 290 -26 50 -77 143 -111 207 -35 64 -64 121 -64 125 0 4 -7 16 -14 26
-10 13 -16 15 -23 5z"/>
<path d="M5094 6328 c-9 -18 -29 -55 -44 -83 -15 -27 -53 -99 -85 -160 -32
-60 -74 -137 -92 -170 -18 -33 -47 -89 -65 -125 -18 -36 -35 -67 -38 -70 -3
-3 -20 -34 -39 -70 -64 -125 -134 -256 -172 -323 -22 -38 -39 -75 -39 -82 0
-7 -4 -15 -8 -17 -5 -1 -38 -59 -74 -128 -36 -69 -82 -155 -102 -192 -20 -38
-52 -98 -72 -135 -20 -38 -59 -111 -87 -163 -27 -52 -62 -117 -77 -145 -15
-27 -44 -81 -65 -120 -20 -38 -60 -113 -88 -165 -28 -52 -53 -97 -56 -100 -3
-3 -7 -11 -8 -17 -2 -7 -25 -53 -53 -103 -27 -50 -50 -94 -50 -99 0 -5 -7 -14
-15 -21 -9 -7 -13 -15 -11 -18 3 -3 -3 -17 -13 -31 -10 -14 -36 -62 -58 -106
-23 -44 -57 -109 -77 -145 -20 -36 -44 -82 -54 -102 -9 -21 -20 -38 -25 -38
-4 0 -6 -4 -2 -9 3 -5 0 -15 -7 -23 -12 -12 -32 -48 -110 -198 -12 -25 -27
-48 -33 -52 -5 -4 -7 -8 -3 -8 4 0 -15 -38 -42 -85 -27 -47 -46 -85 -43 -85 3
0 1 -6 -5 -12 -5 -7 -29 -49 -52 -93 -70 -133 -74 -139 -89 -157 -8 -10 -11
-18 -6 -18 4 0 3 -6 -2 -12 -13 -16 -61 -104 -104 -188 -18 -36 -37 -68 -43
-72 -6 -4 -8 -8 -4 -8 4 0 -10 -30 -31 -68 -41 -73 -140 -259 -178 -334 -13
-26 -28 -50 -33 -53 -6 -4 -8 -11 -5 -16 4 -5 1 -9 -4 -9 -6 0 -11 -5 -11 -11
0 -7 -18 -43 -40 -81 -22 -39 -43 -81 -46 -94 -3 -13 -9 -24 -13 -24 -3 0 -37
-62 -76 -138 -38 -75 -73 -139 -76 -142 -4 -3 -15 -23 -26 -45 -42 -88 -116
-221 -128 -230 -8 -6 -248 -10 -679 -9 l-666 1 -41 -81 c-23 -45 -45 -85 -49
-91 -4 -5 -27 -48 -51 -95 -23 -47 -45 -87 -48 -90 -4 -3 -19 -30 -33 -60 -37
-73 -126 -239 -144 -267 -8 -12 -14 -29 -14 -37 0 -8 -4 -16 -9 -18 -9 -3 -62
-103 -60 -114 0 -4 -3 -10 -8 -13 -5 -3 -24 -35 -42 -71 -19 -36 -47 -89 -63
-118 -15 -29 -28 -57 -28 -62 0 -7 322 -10 903 -10 l904 0 28 52 c15 29 41 78
58 108 16 30 39 73 50 95 12 22 28 48 36 58 8 9 11 17 8 17 -3 0 14 35 37 77
23 43 69 128 101 188 32 61 73 137 91 170 36 67 55 102 138 260 32 61 71 133
86 160 45 82 93 172 165 310 37 72 75 141 83 155 9 14 34 61 57 105 23 44 60
114 82 155 22 41 63 118 91 170 28 52 62 115 75 140 14 25 35 64 46 88 11 24
29 56 41 71 11 16 20 36 20 44 0 9 3 17 8 19 4 2 21 30 38 63 17 33 50 96 74
140 24 44 54 103 68 130 14 28 28 52 31 55 3 3 23 39 44 80 112 218 153 295
158 300 3 3 22 39 44 80 52 102 59 114 68 121 5 3 8 9 8 13 -1 7 3 15 73 146
26 47 56 105 68 130 12 25 24 47 27 50 3 3 20 32 37 65 17 33 49 94 71 135 22
41 64 120 93 175 29 55 62 116 73 135 11 19 51 96 90 170 39 74 73 137 76 140
3 3 20 34 38 70 18 36 53 103 78 150 93 171 159 296 174 328 8 17 19 32 23 32
4 0 8 8 8 18 0 10 4 22 9 27 5 6 30 51 56 100 89 169 98 184 106 179 4 -2 22
-32 39 -65 16 -33 47 -90 67 -127 20 -37 49 -92 66 -122 16 -30 34 -61 40 -67
5 -7 6 -13 2 -13 -4 0 -3 -6 3 -13 11 -13 84 -143 105 -187 6 -14 16 -28 22
-32 5 -4 6 -8 1 -8 -5 0 -4 -6 1 -12 6 -7 34 -58 63 -113 51 -97 66 -124 143
-265 49 -90 120 -225 153 -290 15 -30 30 -57 33 -60 3 -3 26 -45 51 -95 25
-49 47 -92 50 -95 3 -3 17 -27 31 -55 59 -112 123 -233 149 -280 44 -80 93
-171 160 -300 35 -66 67 -121 72 -123 4 -2 8 -10 8 -17 0 -8 9 -29 19 -47 32
-55 120 -219 149 -278 15 -30 30 -57 33 -60 3 -3 36 -63 74 -135 37 -71 81
-155 98 -185 75 -140 165 -308 217 -405 18 -33 37 -66 42 -72 6 -7 8 -13 4
-13 -3 0 7 -21 22 -48 16 -26 55 -96 87 -157 32 -60 70 -132 85 -160 47 -86
143 -269 154 -292 6 -13 14 -23 19 -23 4 0 7 -9 7 -19 0 -11 3 -21 8 -23 4 -1
18 -25 31 -53 14 -27 31 -58 39 -67 9 -10 11 -18 6 -18 -5 0 -4 -4 1 -8 6 -4
28 -41 49 -82 22 -41 57 -109 80 -151 23 -42 60 -112 83 -156 23 -44 51 -96
62 -116 11 -20 46 -84 77 -144 32 -59 62 -109 66 -111 4 -2 8 -10 8 -18 0 -8
11 -32 25 -54 14 -22 22 -40 19 -40 -4 0 0 -8 8 -17 9 -10 17 -22 19 -28 2 -5
21 -43 43 -83 l38 -72 910 0 909 0 -42 78 c-23 42 -46 83 -52 90 -5 6 -6 12
-3 12 4 0 -1 12 -12 28 -10 15 -28 45 -39 67 -39 76 -85 160 -95 173 -6 6 -7
12 -4 12 4 0 -1 12 -12 28 -10 15 -30 50 -44 77 -25 50 -53 102 -141 265 -26
47 -63 119 -84 160 -21 41 -40 77 -43 80 -3 3 -11 17 -18 31 l-14 26 -670 -1
c-435 -1 -672 2 -678 9 -4 6 -31 55 -60 110 -29 55 -66 125 -83 155 -56 103
-94 175 -142 265 -97 183 -128 241 -144 265 -8 14 -16 30 -17 35 -1 6 -11 26
-22 45 -11 19 -31 55 -43 80 -13 25 -25 47 -28 50 -12 10 -31 50 -31 65 0 8
-4 15 -10 15 -5 0 -10 5 -10 10 0 6 -8 22 -17 37 -10 14 -18 32 -19 40 -2 8
-9 22 -17 31 -8 10 -26 40 -39 67 -35 72 -76 146 -89 161 -6 8 -8 14 -4 14 4
0 3 6 -3 13 -5 6 -34 57 -63 112 -29 55 -66 123 -81 150 -15 28 -37 68 -47 90
-11 22 -39 74 -61 115 -23 41 -69 127 -103 190 -34 63 -74 138 -88 165 -15 28
-40 75 -56 105 -51 96 -134 253 -163 305 -15 28 -46 84 -67 125 -22 41 -56
104 -75 140 -19 36 -59 110 -88 165 -29 55 -60 114 -70 130 -9 17 -41 75 -70
130 -29 55 -70 133 -91 173 -22 39 -58 107 -80 150 -23 42 -54 100 -69 127
-15 28 -48 88 -72 135 -109 205 -132 248 -158 295 -32 59 -91 168 -150 280
-23 44 -55 103 -70 130 -15 28 -55 104 -90 170 -35 66 -79 147 -97 180 -18 33
-50 93 -70 133 -21 39 -41 72 -45 72 -4 0 -15 -15 -24 -32z"/>
</g>
</svg>
